<mxfile host="Electron" modified="2024-07-03T13:32:00.903Z" agent="Mozilla/5.0 (Windows NT 10.0; Win64; x64) AppleWebKit/537.36 (KHTML, like Gecko) draw.io/23.1.5 Chrome/120.0.6099.109 Electron/28.1.0 Safari/537.36" etag="rpsLjbCCC8V5cn0K2tSH" version="23.1.5" type="device">
  <diagram name="Page-1" id="3TUpHSHA1gtK3B0JEU8y">
    <mxGraphModel dx="447" dy="271" grid="1" gridSize="10" guides="1" tooltips="1" connect="1" arrows="1" fold="1" page="1" pageScale="1" pageWidth="583" pageHeight="413" math="0" shadow="0">
      <root>
        <mxCell id="0" />
        <mxCell id="1" parent="0" />
        <mxCell id="QgdDYN5rGUicbWpnFUVR-7" value="" style="endArrow=none;html=1;rounded=0;strokeWidth=0.2;strokeColor=#007FFF;endFill=0;endSize=4;startArrow=none;startFill=0;startSize=4;dashed=1;" parent="1" edge="1">
          <mxGeometry width="50" height="50" relative="1" as="geometry">
            <mxPoint x="170" y="150" as="sourcePoint" />
            <mxPoint x="170" y="70" as="targetPoint" />
          </mxGeometry>
        </mxCell>
        <mxCell id="nw0UZW-xQefEUAk0dn4Y-22" value="" style="endArrow=classicThin;html=1;rounded=0;strokeWidth=0.2;strokeColor=#007FFF;endFill=1;endSize=4;startArrow=classicThin;startFill=1;startSize=4;" parent="1" edge="1">
          <mxGeometry width="50" height="50" relative="1" as="geometry">
            <mxPoint x="70" y="150" as="sourcePoint" />
            <mxPoint x="70" y="130" as="targetPoint" />
          </mxGeometry>
        </mxCell>
        <mxCell id="nw0UZW-xQefEUAk0dn4Y-40" value="" style="ellipse;whiteSpace=wrap;html=1;aspect=fixed;fillColor=none;connectable=0;allowArrows=0;" parent="1" vertex="1">
          <mxGeometry x="240" y="80" width="120" height="120" as="geometry" />
        </mxCell>
        <mxCell id="nw0UZW-xQefEUAk0dn4Y-41" value="" style="ellipse;whiteSpace=wrap;html=1;aspect=fixed;fillColor=none;connectable=0;allowArrows=0;" parent="1" vertex="1">
          <mxGeometry x="255" y="95" width="90" height="90" as="geometry" />
        </mxCell>
        <mxCell id="QgdDYN5rGUicbWpnFUVR-1" value="" style="endArrow=none;html=1;rounded=0;" parent="1" edge="1">
          <mxGeometry width="50" height="50" relative="1" as="geometry">
            <mxPoint x="140" y="140" as="sourcePoint" />
            <mxPoint x="140" y="140" as="targetPoint" />
            <Array as="points">
              <mxPoint x="170" y="140" />
              <mxPoint x="195" y="130" />
              <mxPoint x="200" y="130" />
              <mxPoint x="200" y="134" />
              <mxPoint x="170" y="150" />
              <mxPoint x="166" y="150" />
              <mxPoint x="166" y="145" />
              <mxPoint x="114" y="145" />
              <mxPoint x="114" y="150" />
              <mxPoint x="110" y="150" />
              <mxPoint x="80" y="134" />
              <mxPoint x="80" y="130" />
              <mxPoint x="85" y="130" />
              <mxPoint x="110" y="140" />
            </Array>
          </mxGeometry>
        </mxCell>
        <mxCell id="QgdDYN5rGUicbWpnFUVR-4" value="&lt;div style=&quot;&quot;&gt;&lt;span style=&quot;background-color: initial;&quot;&gt;plate&lt;/span&gt;&lt;/div&gt;&lt;div style=&quot;&quot;&gt;&lt;span style=&quot;background-color: initial;&quot;&gt;height&lt;/span&gt;&lt;/div&gt;" style="text;html=1;align=right;verticalAlign=middle;whiteSpace=wrap;rounded=0;fontSize=10;fontColor=#007FFF;allowArrows=0;connectable=0;spacingLeft=2;spacingTop=2;spacingBottom=2;spacingRight=2;" parent="1" vertex="1">
          <mxGeometry x="20" y="120" width="50" height="40" as="geometry" />
        </mxCell>
        <mxCell id="QgdDYN5rGUicbWpnFUVR-5" value="" style="endArrow=classicThin;html=1;rounded=0;strokeWidth=0.2;strokeColor=#007FFF;endFill=1;endSize=4;startArrow=classicThin;startFill=1;startSize=4;" parent="1" edge="1">
          <mxGeometry width="50" height="50" relative="1" as="geometry">
            <mxPoint x="81" y="120" as="sourcePoint" />
            <mxPoint x="200" y="120" as="targetPoint" />
          </mxGeometry>
        </mxCell>
        <mxCell id="QgdDYN5rGUicbWpnFUVR-6" value="&lt;div style=&quot;&quot;&gt;&lt;span style=&quot;background-color: initial;&quot;&gt;plate size&lt;/span&gt;&lt;/div&gt;" style="text;html=1;align=center;verticalAlign=bottom;whiteSpace=wrap;rounded=0;fontSize=10;fontColor=#007FFF;allowArrows=0;connectable=0;spacingLeft=2;spacingTop=2;spacingBottom=2;spacingRight=2;" parent="1" vertex="1">
          <mxGeometry x="111" y="100" width="60" height="20" as="geometry" />
        </mxCell>
        <mxCell id="QgdDYN5rGUicbWpnFUVR-8" value="" style="endArrow=classicThin;html=1;rounded=0;strokeWidth=0.2;strokeColor=#007FFF;endFill=1;endSize=4;startArrow=classicThin;startFill=1;startSize=4;curved=1;" parent="1" edge="1">
          <mxGeometry width="50" height="50" relative="1" as="geometry">
            <mxPoint x="230" y="110" as="sourcePoint" />
            <mxPoint x="170" y="80" as="targetPoint" />
            <Array as="points">
              <mxPoint x="210" y="80" />
            </Array>
          </mxGeometry>
        </mxCell>
        <mxCell id="QgdDYN5rGUicbWpnFUVR-9" value="" style="endArrow=none;html=1;rounded=0;strokeWidth=0.2;strokeColor=#007FFF;endFill=0;endSize=4;startArrow=none;startFill=0;startSize=4;dashed=1;" parent="1" edge="1">
          <mxGeometry width="50" height="50" relative="1" as="geometry">
            <mxPoint x="202" y="129" as="sourcePoint" />
            <mxPoint x="237" y="103" as="targetPoint" />
          </mxGeometry>
        </mxCell>
        <mxCell id="QgdDYN5rGUicbWpnFUVR-11" value="&lt;div style=&quot;&quot;&gt;&lt;span style=&quot;background-color: initial;&quot;&gt;plate shape&lt;/span&gt;&lt;/div&gt;" style="text;html=1;align=center;verticalAlign=bottom;whiteSpace=wrap;rounded=0;fontSize=10;fontColor=#007FFF;allowArrows=0;connectable=0;spacingLeft=2;spacingTop=2;spacingBottom=2;spacingRight=2;" parent="1" vertex="1">
          <mxGeometry x="194" y="63" width="40" height="25" as="geometry" />
        </mxCell>
        <mxCell id="nw0UZW-xQefEUAk0dn4Y-36" value="" style="ellipse;whiteSpace=wrap;html=1;aspect=fixed;connectable=0;fillColor=#007FFF;strokeColor=none;" parent="1" vertex="1">
          <mxGeometry x="138" y="148" width="4" height="4" as="geometry" />
        </mxCell>
        <mxCell id="QgdDYN5rGUicbWpnFUVR-13" value="&lt;div style=&quot;&quot;&gt;&lt;span style=&quot;background-color: initial;&quot;&gt;origin&lt;/span&gt;&lt;/div&gt;" style="text;html=1;align=center;verticalAlign=middle;whiteSpace=wrap;rounded=0;fontSize=10;fontColor=#007FFF;allowArrows=0;connectable=0;spacingLeft=2;spacingTop=2;spacingBottom=2;spacingRight=2;" parent="1" vertex="1">
          <mxGeometry x="110" y="160" width="60" height="18" as="geometry" />
        </mxCell>
        <mxCell id="QgdDYN5rGUicbWpnFUVR-16" value="" style="ellipse;whiteSpace=wrap;html=1;aspect=fixed;connectable=0;fillColor=#007FFF;strokeColor=none;" parent="1" vertex="1">
          <mxGeometry x="298" y="138" width="4" height="4" as="geometry" />
        </mxCell>
        <mxCell id="QgdDYN5rGUicbWpnFUVR-20" value="" style="endArrow=classicThin;html=1;rounded=0;strokeWidth=0.2;strokeColor=#007FFF;endFill=1;endSize=4;startArrow=classicThin;startFill=1;startSize=4;" parent="1" edge="1">
          <mxGeometry width="50" height="50" relative="1" as="geometry">
            <mxPoint x="299.79" y="94.5" as="sourcePoint" />
            <mxPoint x="299.79" y="79.5" as="targetPoint" />
          </mxGeometry>
        </mxCell>
        <mxCell id="QgdDYN5rGUicbWpnFUVR-21" value="&lt;div style=&quot;&quot;&gt;plate width&lt;/div&gt;" style="text;html=1;align=left;verticalAlign=middle;whiteSpace=wrap;rounded=0;fontSize=10;fontColor=#007FFF;allowArrows=0;connectable=0;spacingLeft=2;spacingTop=2;spacingBottom=2;spacingRight=2;" parent="1" vertex="1">
          <mxGeometry x="272" y="57" width="66" height="23" as="geometry" />
        </mxCell>
        <mxCell id="wd8rZi6SLBa35cQD6P-M-3" value="8" style="ellipse;aspect=fixed;rotation=0;connectable=0;allowArrows=0;fillColor=none;strokeColor=none;strokeWidth=0.1;fontSize=4;spacing=0;spacingBottom=0;fontColor=#FF0000;" vertex="1" parent="1">
          <mxGeometry x="137" y="135" width="5" height="5" as="geometry" />
        </mxCell>
        <mxCell id="wd8rZi6SLBa35cQD6P-M-4" value="7" style="ellipse;aspect=fixed;rotation=0;connectable=0;allowArrows=0;fillColor=none;strokeColor=none;strokeWidth=0.1;fontSize=4;spacing=0;spacingBottom=0;fontColor=#FF0000;" vertex="1" parent="1">
          <mxGeometry x="167" y="135" width="5" height="5" as="geometry" />
        </mxCell>
        <mxCell id="wd8rZi6SLBa35cQD6P-M-5" value="0b" style="ellipse;aspect=fixed;rotation=0;connectable=0;allowArrows=0;fillColor=none;strokeColor=none;strokeWidth=0.1;fontSize=4;spacing=0;spacingBottom=0;fontColor=#FF0000;" vertex="1" parent="1">
          <mxGeometry x="137" y="151" width="6" height="6" as="geometry" />
        </mxCell>
        <mxCell id="wd8rZi6SLBa35cQD6P-M-6" value="" style="endArrow=none;html=1;rounded=0;" edge="1" parent="1">
          <mxGeometry width="50" height="50" relative="1" as="geometry">
            <mxPoint x="114" y="150" as="sourcePoint" />
            <mxPoint x="166" y="150" as="targetPoint" />
          </mxGeometry>
        </mxCell>
        <mxCell id="wd8rZi6SLBa35cQD6P-M-7" value="0a" style="ellipse;aspect=fixed;rotation=0;connectable=0;allowArrows=0;fillColor=none;strokeColor=none;strokeWidth=0.1;fontSize=4;spacing=0;spacingBottom=0;fontColor=#FF0000;" vertex="1" parent="1">
          <mxGeometry x="137" y="140" width="6" height="6" as="geometry" />
        </mxCell>
        <mxCell id="wd8rZi6SLBa35cQD6P-M-8" value="1" style="ellipse;aspect=fixed;rotation=0;connectable=0;allowArrows=0;fillColor=none;strokeColor=none;strokeWidth=0.1;fontSize=4;spacing=0;spacingBottom=0;fontColor=#FF0000;" vertex="1" parent="1">
          <mxGeometry x="164" y="141" width="6" height="6" as="geometry" />
        </mxCell>
        <mxCell id="wd8rZi6SLBa35cQD6P-M-9" value="2" style="ellipse;aspect=fixed;rotation=0;connectable=0;allowArrows=0;fillColor=none;strokeColor=none;strokeWidth=0.1;fontSize=4;spacing=0;spacingBottom=0;fontColor=#FF0000;" vertex="1" parent="1">
          <mxGeometry x="163" y="150" width="6" height="6" as="geometry" />
        </mxCell>
        <mxCell id="wd8rZi6SLBa35cQD6P-M-10" value="3" style="ellipse;aspect=fixed;rotation=0;connectable=0;allowArrows=0;fillColor=none;strokeColor=none;strokeWidth=0.1;fontSize=4;spacing=0;spacingBottom=0;fontColor=#FF0000;" vertex="1" parent="1">
          <mxGeometry x="167" y="150" width="6" height="6" as="geometry" />
        </mxCell>
        <mxCell id="wd8rZi6SLBa35cQD6P-M-11" value="4" style="ellipse;aspect=fixed;rotation=0;connectable=0;allowArrows=0;fillColor=none;strokeColor=none;strokeWidth=0.1;fontSize=4;spacing=0;spacingBottom=0;fontColor=#FF0000;" vertex="1" parent="1">
          <mxGeometry x="200" y="132" width="6" height="6" as="geometry" />
        </mxCell>
        <mxCell id="wd8rZi6SLBa35cQD6P-M-12" value="5" style="ellipse;aspect=fixed;rotation=0;connectable=0;allowArrows=0;fillColor=none;strokeColor=none;strokeWidth=0.1;fontSize=4;spacing=0;spacingBottom=0;fontColor=#FF0000;" vertex="1" parent="1">
          <mxGeometry x="198" y="124" width="6" height="6" as="geometry" />
        </mxCell>
        <mxCell id="wd8rZi6SLBa35cQD6P-M-13" value="6" style="ellipse;aspect=fixed;rotation=0;connectable=0;allowArrows=0;fillColor=none;strokeColor=none;strokeWidth=0.1;fontSize=4;spacing=0;spacingBottom=0;fontColor=#FF0000;" vertex="1" parent="1">
          <mxGeometry x="191" y="124" width="6" height="6" as="geometry" />
        </mxCell>
      </root>
    </mxGraphModel>
  </diagram>
</mxfile>
